<svg width="38" height="38" viewBox="0 0 38 38" fill="none" xmlns="http://www.w3.org/2000/svg">
<path d="M32.3963 23.5325C31.5014 24.0875 30.655 24.5199 29.8988 24.8275C29.3739 25.0587 28.805 25.1674 28.25 25.1674C27.695 25.1674 27.1238 25.0587 26.6012 24.8275C25.2599 24.2725 23.625 23.3475 22.0386 22.0825H7.31494L9.59738 16.8401C9.84481 16.2851 10.3998 15.9151 11.0011 15.9151H17.076C16.6436 14.96 16.3059 13.9263 16.1209 12.8325H10.9988C9.16494 12.8325 7.49994 13.9263 6.75994 15.6075L3.70744 22.6213C3.69125 22.6514 3.70744 22.6838 3.69125 22.73C1.81119 23.6874 0.5 25.6137 0.5 27.8638V33.645C0.5 35.7725 2.22744 37.5 4.35494 37.5C6.48244 37.5 8.20988 35.7725 8.20988 33.645V32.875H26.7099V33.645C26.7076 35.7725 28.435 37.5 30.5625 37.5C32.69 37.5 34.4174 35.7725 34.4174 33.645V27.8638C34.4174 26.1225 33.6312 24.5661 32.3963 23.5325ZM9.75 29.7924H6.66744C5.81875 29.7924 5.125 29.0986 5.125 28.25C5.125 27.4013 5.81875 26.7075 6.66744 26.7075H9.75C10.5987 26.7075 11.2924 27.4013 11.2924 28.25C11.2924 29.0986 10.5987 29.7924 9.75 29.7924ZM28.25 29.7924H25.1674C24.3188 29.7924 23.625 29.0986 23.625 28.25C23.625 27.4013 24.3188 26.7075 25.1674 26.7075H28.25C29.0987 26.7075 29.7924 27.4013 29.7924 28.25C29.7924 29.0986 29.0987 29.7924 28.25 29.7924Z" fill="#0B0A0A"/>
<path d="M36.7161 3.31431L28.6223 0.562437C28.3818 0.479188 28.1205 0.479188 27.8777 0.562437L19.7839 3.31431C19.3145 3.47387 19 3.91325 19 4.41044V10.6056C19 18.1675 27.4383 21.8397 27.7991 21.9947C28.0904 22.1172 28.4119 22.1172 28.7032 21.9947C29.0617 21.8397 37.5 18.1652 37.5 10.6033V4.41044C37.5 3.91325 37.1855 3.47387 36.7161 3.31431ZM33.3167 9.16031L29.0779 14.5554C28.5367 15.2445 27.5262 15.3439 26.8625 14.7727L24.1638 12.4602C23.5163 11.9052 23.44 10.934 23.9973 10.2865C24.5523 9.64131 25.5259 9.565 26.1688 10.12L27.6464 11.3849L30.8932 7.25481C31.4181 6.5865 32.3871 6.46856 33.0577 6.99581C33.726 7.52306 33.8439 8.492 33.3167 9.16031Z" fill="#0B0A0A"/>
</svg>
