<svg width="37" height="37" viewBox="0 0 37 37" fill="none" xmlns="http://www.w3.org/2000/svg">
<g clip-path="url(#clip0_334_1442)">
<path d="M37 8.86458C37 7.73763 36.3032 6.77254 35.3196 6.36863L33.838 2.66554C33.1905 1.04679 31.6458 0 29.9022 0H25.5978C23.8542 0 22.3095 1.04679 21.662 2.66554L20.1804 6.36863C19.1968 6.77254 18.5 7.73763 18.5 8.86458V13.1042C18.5 14.3822 19.5345 15.4167 20.8125 15.4167C22.0905 15.4167 23.125 14.3822 23.125 13.1042V12.3333H32.375V13.1042C32.375 14.3822 33.4095 15.4167 34.6875 15.4167C35.9655 15.4167 37 14.3822 37 13.1042V8.86458ZM25.5978 2.3125H29.9022C30.6946 2.3125 31.3976 2.78888 31.692 3.52425L32.7481 6.16667H22.7504L23.808 3.52425C24.1024 2.78888 24.8054 2.3125 25.5978 2.3125Z" fill="#0B0A0A"/>
<path d="M0.756958 18.5029C0.337625 18.5106 0 18.8528 0 19.2737V33.531C0 33.7438 0.172667 33.9165 0.385417 33.9165H4.04225C4.38758 33.9165 4.68975 33.6883 4.78379 33.3568L8.1955 21.3349C8.41596 20.5579 7.99971 19.7408 7.23967 19.4649C5.84292 18.9561 3.7 18.4535 0.756958 18.5029Z" fill="#0B0A0A"/>
<path d="M33.9167 26.979C30.8333 26.979 24.6667 30.881 21.5833 30.881C18.5 30.881 15.0313 28.5207 15.0313 28.5207C15.0313 28.5207 19.1845 29.2915 21.5833 29.2915C23.9822 29.2915 24.6667 28.4729 24.6667 27.3644C24.6667 24.6665 20.0848 24.2472 17.7662 23.8941C15.4907 22.6269 14.3082 21.6248 10.5388 21.3057C10.5173 21.5261 10.4833 21.745 10.4217 21.9624L7.32446 32.8774C10.8318 34.473 16.872 36.9998 20.0417 36.9998C24.6667 36.9998 37 30.8332 37 29.2915C37 27.7498 35.4583 26.979 33.9167 26.979Z" fill="#0B0A0A"/>
</g>
<defs>
<clipPath id="clip0_334_1442">
<rect width="37" height="37" fill="white"/>
</clipPath>
</defs>
</svg>
