<svg width="37" height="37" viewBox="0 0 37 37" fill="none" xmlns="http://www.w3.org/2000/svg">
<g clip-path="url(#clip0_334_1570)">
<path d="M14.2604 11.9478H11.9479C11.0954 11.9478 10.4062 12.6384 10.4062 13.4894C10.4062 14.3404 11.0954 15.0311 11.9479 15.0311H14.2604V16.9582C12.1345 16.9582 10.4062 18.6879 10.4062 20.8123V23.5103C10.4062 24.3613 11.0954 25.0519 11.9479 25.0519H15.8021C16.6546 25.0519 17.3438 24.3613 17.3438 23.5103C17.3438 22.6593 16.6546 21.9686 15.8021 21.9686H13.4896V20.8123C13.4896 20.3868 13.8365 20.0415 14.2604 20.0415C15.9609 20.0415 17.3438 18.6586 17.3438 16.9582V15.0311C17.3438 13.3306 15.9609 11.9478 14.2604 11.9478Z" fill="#0B0A0A"/>
<path d="M25.052 11.9478C24.1995 11.9478 23.5104 12.6384 23.5104 13.4894V17.3436H21.9687V13.4894C21.9687 12.6384 21.2796 11.9478 20.427 11.9478C19.5745 11.9478 18.8854 12.6384 18.8854 13.4894V17.3436C18.8854 19.044 20.2683 20.4269 21.9687 20.4269H23.5104V23.5103C23.5104 24.3613 24.1995 25.0519 25.052 25.0519C25.9046 25.0519 26.5937 24.3613 26.5937 23.5103V13.4894C26.5937 12.6384 25.9046 11.9478 25.052 11.9478Z" fill="#0B0A0A"/>
<path d="M18.5 0C8.29879 0 0 8.29879 0 18.5C0 28.7012 8.29879 37 18.5 37C28.7012 37 37 28.7012 37 18.5C37 8.29879 28.7012 0 18.5 0ZM19.6562 33.8581V31.9896C19.6562 31.3513 19.1383 30.8333 18.5 30.8333C17.8617 30.8333 17.3438 31.3513 17.3438 31.9896V33.8581C9.76646 33.2923 3.70925 27.2335 3.14192 19.6562H5.01042C5.64867 19.6562 6.16667 19.1383 6.16667 18.5C6.16667 17.8617 5.64867 17.3438 5.01042 17.3438H3.14192C3.70925 9.76646 9.76646 3.70771 17.3438 3.14192V5.01042C17.3438 5.64867 17.8617 6.16667 18.5 6.16667C19.1383 6.16667 19.6562 5.64867 19.6562 5.01042V3.14192C27.2335 3.70771 33.2907 9.76646 33.8581 17.3438H31.9896C31.3513 17.3438 30.8333 17.8617 30.8333 18.5C30.8333 19.1383 31.3513 19.6562 31.9896 19.6562H33.8581C33.2907 27.2335 27.2335 33.2923 19.6562 33.8581Z" fill="#0B0A0A"/>
</g>
<defs>
<clipPath id="clip0_334_1570">
<rect width="37" height="37" fill="white"/>
</clipPath>
</defs>
</svg>
