<svg width="37" height="37" viewBox="0 0 37 37" fill="none" xmlns="http://www.w3.org/2000/svg">
<g clip-path="url(#clip0_334_1447)">
<path d="M31.773 34.8239L17.2204 27.1187C16.8412 26.9175 16.3787 26.9452 16.0202 27.188L4.89247 34.8933C4.47622 35.1824 4.29585 35.7073 4.44847 36.1906C4.59647 36.6693 5.0451 37 5.54922 37H31.2295C31.7591 37 32.2239 36.6392 32.3511 36.1212C32.4806 35.6055 32.2401 35.0714 31.773 34.8239Z" fill="#0B0A0A"/>
<path d="M36.6431 32.627L33.2206 17.2188C33.1373 16.8419 32.8714 16.5343 32.513 16.3933C32.1522 16.2522 31.7475 16.3008 31.433 16.5182L20.303 24.2234C19.97 24.4547 19.7826 24.8408 19.8081 25.2409C19.8312 25.6456 20.0648 26.0063 20.4209 26.1937L34.9711 33.8989C35.1423 33.9891 35.3273 34.0353 35.5123 34.0353C35.7597 34.0353 36.0071 33.9567 36.213 33.7972C36.5714 33.5243 36.7402 33.0687 36.6431 32.627Z" fill="#0B0A0A"/>
<path d="M28.5909 14.6867C28.4383 14.2034 27.992 13.875 27.4855 13.875H16.9313C15.0119 17.3507 12.1722 20.6737 11.0044 21.9734C10.3476 22.7041 9.40643 23.125 8.42361 23.125C7.4408 23.125 6.49961 22.7041 5.84286 21.9734C5.39192 21.4716 4.69355 20.6691 3.89342 19.6748L1.0953 32.2686C0.99355 32.7334 1.18549 33.2121 1.57861 33.4781C1.77286 33.6099 1.99949 33.6746 2.2238 33.6746C2.45505 33.6746 2.68399 33.6076 2.88286 33.4688L28.1423 15.9794C28.5609 15.6949 28.7389 15.17 28.5909 14.6867Z" fill="#0B0A0A"/>
<path d="M8.42358 0C3.96046 0 0.329834 3.63063 0.329834 8.09375C0.329834 12.247 6.82333 19.6031 7.56333 20.4286C7.78302 20.6714 8.09521 20.8125 8.42358 20.8125C8.75196 20.8125 9.06415 20.6714 9.28383 20.4286C10.0238 19.6031 16.5173 12.247 16.5173 8.09375C16.5173 3.63063 12.8867 0 8.42358 0ZM8.42358 11.5625C6.50883 11.5625 4.95483 10.0085 4.95483 8.09375C4.95483 6.179 6.50883 4.625 8.42358 4.625C10.3383 4.625 11.8923 6.179 11.8923 8.09375C11.8923 10.0085 10.3383 11.5625 8.42358 11.5625Z" fill="#0B0A0A"/>
</g>
<defs>
<clipPath id="clip0_334_1447">
<rect width="37" height="37" fill="white"/>
</clipPath>
</defs>
</svg>
