<svg width="40" height="38" viewBox="0 0 40 38" fill="none" xmlns="http://www.w3.org/2000/svg">
<path d="M28.0434 14.1738C28.0434 6.63393 21.9095 0.5 14.3696 0.5C6.82968 0.5 0.695679 6.63393 0.695679 14.1738C0.695679 21.7137 6.82961 27.8476 14.3695 27.8476C21.9094 27.8476 28.0434 21.7137 28.0434 14.1738Z" fill="#0B0A0A"/>
<path d="M9.54342 32.6739C8.21301 32.6739 7.13039 31.5913 7.13039 30.2609C7.13039 29.8169 6.77001 29.4565 6.32602 29.4565C5.88202 29.4565 5.52172 29.8169 5.52172 30.2609C5.52172 31.5913 4.4391 32.6739 3.10869 32.6739C2.66469 32.6739 2.30432 33.0343 2.30432 33.4783C2.30432 33.9223 2.66469 34.2827 3.10869 34.2827C4.4391 34.2827 5.52172 35.3653 5.52172 36.6957C5.52172 37.1397 5.88209 37.5001 6.32609 37.5001C6.77009 37.5001 7.13046 37.1397 7.13046 36.6957C7.13046 35.3653 8.21308 34.2827 9.54349 34.2827C9.98749 34.2827 10.3479 33.9223 10.3479 33.4783C10.3478 33.0343 9.98742 32.6739 9.54342 32.6739Z" fill="#0B0A0A"/>
<path d="M28.8477 3.7174H29.6521V4.52177C29.6521 4.96577 30.0124 5.32614 30.4564 5.32614C30.9004 5.32614 31.2607 4.96577 31.2607 4.52177V3.7174H32.0651C32.5091 3.7174 32.8695 3.35703 32.8695 2.91303C32.8695 2.46903 32.5091 2.10874 32.0651 2.10874H31.2607V1.30437C31.2607 0.860371 30.9004 0.5 30.4564 0.5C30.0124 0.5 29.6521 0.860371 29.6521 1.30437V2.10874H28.8477C28.4037 2.10874 28.0433 2.46911 28.0433 2.91311C28.0433 3.35711 28.4037 3.7174 28.8477 3.7174Z" fill="#0B0A0A"/>
<path d="M38.4998 14.9781C37.1694 14.9781 36.0868 13.8955 36.0868 12.5651C36.0868 12.1211 35.7264 11.7607 35.2824 11.7607C34.8384 11.7607 34.4781 12.1211 34.4781 12.5651C34.4781 13.8955 33.3955 14.9781 32.0651 14.9781C31.6211 14.9781 31.2607 15.3385 31.2607 15.7825C31.2607 16.2265 31.6211 16.5868 32.0651 16.5868C33.3955 16.5868 34.4781 17.6694 34.4781 18.9998C34.4781 19.4438 34.8385 19.8042 35.2825 19.8042C35.7265 19.8042 36.0869 19.4438 36.0869 18.9998C36.0869 17.6694 37.1695 16.5868 38.4999 16.5868C38.9439 16.5868 39.3043 16.2264 39.3043 15.7824C39.3043 15.3384 38.9438 14.9781 38.4998 14.9781Z" fill="#0B0A0A"/>
<path d="M33.6737 29.4563C30.569 29.4563 28.0433 26.9307 28.0433 23.8259C28.0433 23.3819 27.6829 23.0215 27.2389 23.0215C26.7949 23.0215 26.4346 23.3819 26.4346 23.8259C26.4346 26.9306 23.9089 29.4563 20.8041 29.4563C20.3601 29.4563 19.9998 29.8167 19.9998 30.2607C19.9998 30.7047 20.3601 31.065 20.8041 31.065C23.9089 31.065 26.4346 33.5906 26.4346 36.6955C26.4346 37.1395 26.7949 37.4998 27.2389 37.4998C27.6829 37.4998 28.0433 37.1395 28.0433 36.6955C28.0433 33.5907 30.5689 31.065 33.6737 31.065C34.1177 31.065 34.4781 30.7047 34.4781 30.2607C34.4781 29.8166 34.1177 29.4563 33.6737 29.4563Z" fill="#0B0A0A"/>
</svg>
